<mxfile host="app.diagrams.net" modified="2021-09-14T09:14:29.533Z" agent="5.0 (X11; Linux x86_64) AppleWebKit/537.36 (KHTML, like Gecko) Chrome/93.0.4577.82 Safari/537.36" etag="Wmly_VDeDk_fI7NwvMwY" version="15.2.5" type="github">
  <diagram name="两癌系统架构层次图" id="7a6c530e-6e37-e111-ec74-82921da8cc10">
    <mxGraphModel dx="1185" dy="630" grid="1" gridSize="10" guides="1" tooltips="1" connect="1" arrows="1" fold="1" page="1" pageScale="1.5" pageWidth="1169" pageHeight="826" background="#184380" math="0" shadow="0">
      <root>
        <mxCell id="0" style=";html=1;" />
        <mxCell id="1" style=";html=1;" parent="0" />
        <mxCell id="23046e2b9bb16c14-116" value="两癌系统架构层次图" style="whiteSpace=wrap;html=1;rounded=1;shadow=0;strokeColor=none;strokeWidth=2;fillColor=#FFFFFF;fontSize=20;fontColor=#FFFFFF;align=center;arcSize=3;verticalAlign=top;spacingTop=4;" parent="1" vertex="1">
          <mxGeometry x="80" y="80" width="900" height="700" as="geometry" />
        </mxCell>
        <mxCell id="23046e2b9bb16c14-64" value="基于FHIR的集成平台" style="rounded=1;whiteSpace=wrap;html=1;shadow=0;strokeWidth=2;fillColor=#3333FF;fontSize=16;fontColor=#FFFFFF;align=center;strokeColor=none;arcSize=3;verticalAlign=middle;fontStyle=1" parent="1" vertex="1">
          <mxGeometry x="130" y="390" width="800" height="50" as="geometry" />
        </mxCell>
        <mxCell id="23046e2b9bb16c14-27" value="医院" style="rounded=1;whiteSpace=wrap;html=1;shadow=0;strokeWidth=2;fillColor=#8BC63E;fontSize=14;fontColor=#000000;align=center;strokeColor=none;arcSize=3;verticalAlign=top;fontStyle=1" parent="1" vertex="1">
          <mxGeometry x="185" y="500" width="270" height="210" as="geometry" />
        </mxCell>
        <mxCell id="23046e2b9bb16c14-28" value="用户管理" style="rounded=1;whiteSpace=wrap;html=1;shadow=0;strokeWidth=2;fillColor=#F04D22;fontSize=14;fontColor=#FFFFFF;align=center;strokeColor=none;arcSize=6;verticalAlign=top;fontStyle=1" parent="1" vertex="1">
          <mxGeometry x="130" y="130" width="230" height="200" as="geometry" />
        </mxCell>
        <mxCell id="23046e2b9bb16c14-49" value="用户注册" style="rounded=1;whiteSpace=wrap;html=1;shadow=0;strokeWidth=2;fillColor=none;fontSize=12;fontColor=#000000;align=center;strokeColor=#FFFFFF;" parent="1" vertex="1">
          <mxGeometry x="185" y="170" width="120" height="30" as="geometry" />
        </mxCell>
        <mxCell id="59Pe3iavh_he9ooAjT1P-2" value="用户授权" style="rounded=1;whiteSpace=wrap;html=1;shadow=0;strokeWidth=2;fillColor=none;fontSize=12;fontColor=#000000;align=center;strokeColor=#FFFFFF;" vertex="1" parent="1">
          <mxGeometry x="185" y="220" width="120" height="30" as="geometry" />
        </mxCell>
        <mxCell id="59Pe3iavh_he9ooAjT1P-3" value="用户认证" style="rounded=1;whiteSpace=wrap;html=1;shadow=0;strokeWidth=2;fillColor=none;fontSize=12;fontColor=#000000;align=center;strokeColor=#FFFFFF;" vertex="1" parent="1">
          <mxGeometry x="185" y="270" width="120" height="30" as="geometry" />
        </mxCell>
        <mxCell id="59Pe3iavh_he9ooAjT1P-4" value="EMPI" style="rounded=1;whiteSpace=wrap;html=1;shadow=0;strokeWidth=2;fillColor=#B266FF;fontSize=14;fontColor=#FFFFFF;align=center;strokeColor=none;arcSize=6;verticalAlign=top;fontStyle=1" vertex="1" parent="1">
          <mxGeometry x="415" y="130" width="230" height="200" as="geometry" />
        </mxCell>
        <mxCell id="59Pe3iavh_he9ooAjT1P-10" value="核心数据集" style="shape=datastore;whiteSpace=wrap;html=1;fontSize=12;fillColor=#B266FF;verticalAlign=middle;strokeColor=#FFFFFF;strokeWidth=2;" vertex="1" parent="1">
          <mxGeometry x="470" y="270" width="120" height="50" as="geometry" />
        </mxCell>
        <mxCell id="59Pe3iavh_he9ooAjT1P-11" value="信息服务" style="rounded=1;whiteSpace=wrap;html=1;shadow=0;strokeWidth=2;fillColor=none;fontSize=12;fontColor=#000000;align=center;strokeColor=#FFFFFF;" vertex="1" parent="1">
          <mxGeometry x="440" y="170" width="100" height="30" as="geometry" />
        </mxCell>
        <mxCell id="59Pe3iavh_he9ooAjT1P-12" value="基础层" style="rounded=1;whiteSpace=wrap;html=1;shadow=0;strokeWidth=2;fillColor=none;fontSize=12;fontColor=#000000;align=center;strokeColor=#FFFFFF;" vertex="1" parent="1">
          <mxGeometry x="440" y="220" width="100" height="30" as="geometry" />
        </mxCell>
        <mxCell id="59Pe3iavh_he9ooAjT1P-13" value="应用系统" style="rounded=1;whiteSpace=wrap;html=1;shadow=0;strokeWidth=2;fillColor=#FF9933;fontSize=14;fontColor=#FFFFFF;align=center;strokeColor=none;arcSize=6;verticalAlign=top;fontStyle=1" vertex="1" parent="1">
          <mxGeometry x="700" y="130" width="230" height="200" as="geometry" />
        </mxCell>
        <mxCell id="59Pe3iavh_he9ooAjT1P-15" value="系统A" style="rounded=1;whiteSpace=wrap;html=1;shadow=0;strokeWidth=2;fillColor=none;fontSize=12;fontColor=#000000;align=center;strokeColor=#FFFFFF;" vertex="1" parent="1">
          <mxGeometry x="755" y="165.5" width="120" height="30" as="geometry" />
        </mxCell>
        <mxCell id="59Pe3iavh_he9ooAjT1P-16" value="系统B" style="rounded=1;whiteSpace=wrap;html=1;shadow=0;strokeWidth=2;fillColor=none;fontSize=12;fontColor=#000000;align=center;strokeColor=#FFFFFF;" vertex="1" parent="1">
          <mxGeometry x="755" y="215.5" width="120" height="30" as="geometry" />
        </mxCell>
        <mxCell id="59Pe3iavh_he9ooAjT1P-21" value="系统C" style="rounded=1;whiteSpace=wrap;html=1;shadow=0;strokeWidth=2;fillColor=none;fontSize=12;fontColor=#000000;align=center;strokeColor=#FFFFFF;" vertex="1" parent="1">
          <mxGeometry x="755" y="270" width="120" height="30" as="geometry" />
        </mxCell>
        <mxCell id="59Pe3iavh_he9ooAjT1P-25" value="" style="endArrow=classic;startArrow=classic;html=1;fontSize=12;exitX=0.5;exitY=0;exitDx=0;exitDy=0;" edge="1" parent="1" source="23046e2b9bb16c14-64">
          <mxGeometry width="50" height="50" relative="1" as="geometry">
            <mxPoint x="480" y="380" as="sourcePoint" />
            <mxPoint x="530" y="330" as="targetPoint" />
          </mxGeometry>
        </mxCell>
        <mxCell id="59Pe3iavh_he9ooAjT1P-26" value="" style="endArrow=classic;startArrow=classic;html=1;fontSize=12;" edge="1" parent="1">
          <mxGeometry width="50" height="50" relative="1" as="geometry">
            <mxPoint x="820" y="390" as="sourcePoint" />
            <mxPoint x="820" y="330" as="targetPoint" />
          </mxGeometry>
        </mxCell>
        <mxCell id="59Pe3iavh_he9ooAjT1P-27" value="" style="endArrow=classic;startArrow=classic;html=1;fontSize=12;" edge="1" parent="1">
          <mxGeometry width="50" height="50" relative="1" as="geometry">
            <mxPoint x="250" y="390" as="sourcePoint" />
            <mxPoint x="250" y="330" as="targetPoint" />
          </mxGeometry>
        </mxCell>
        <mxCell id="59Pe3iavh_he9ooAjT1P-28" value="HIS系统" style="rounded=1;whiteSpace=wrap;html=1;shadow=0;strokeWidth=2;fillColor=none;fontSize=12;fontColor=#000000;align=center;strokeColor=#FFFFFF;" vertex="1" parent="1">
          <mxGeometry x="220" y="550" width="95" height="30" as="geometry" />
        </mxCell>
        <mxCell id="59Pe3iavh_he9ooAjT1P-29" value="LIS系统" style="rounded=1;whiteSpace=wrap;html=1;shadow=0;strokeWidth=2;fillColor=none;fontSize=12;fontColor=#000000;align=center;strokeColor=#FFFFFF;" vertex="1" parent="1">
          <mxGeometry x="325" y="550" width="95" height="30" as="geometry" />
        </mxCell>
        <mxCell id="59Pe3iavh_he9ooAjT1P-30" value="PACS系统" style="rounded=1;whiteSpace=wrap;html=1;shadow=0;strokeWidth=2;fillColor=none;fontSize=12;fontColor=#000000;align=center;strokeColor=#FFFFFF;" vertex="1" parent="1">
          <mxGeometry x="220" y="600" width="95" height="30" as="geometry" />
        </mxCell>
        <mxCell id="59Pe3iavh_he9ooAjT1P-31" value="" style="endArrow=classic;startArrow=classic;html=1;fontSize=12;exitX=0.5;exitY=0;exitDx=0;exitDy=0;" edge="1" parent="1" source="23046e2b9bb16c14-27">
          <mxGeometry width="50" height="50" relative="1" as="geometry">
            <mxPoint x="319.58" y="480" as="sourcePoint" />
            <mxPoint x="320" y="440" as="targetPoint" />
          </mxGeometry>
        </mxCell>
        <mxCell id="59Pe3iavh_he9ooAjT1P-32" value="社区中心" style="rounded=1;whiteSpace=wrap;html=1;shadow=0;strokeWidth=2;fillColor=#8BC63E;fontSize=14;fontColor=#000000;align=center;strokeColor=none;arcSize=3;verticalAlign=top;fontStyle=1" vertex="1" parent="1">
          <mxGeometry x="605" y="500" width="270" height="210" as="geometry" />
        </mxCell>
        <mxCell id="59Pe3iavh_he9ooAjT1P-33" value="HIS系统" style="rounded=1;whiteSpace=wrap;html=1;shadow=0;strokeWidth=2;fillColor=none;fontSize=12;fontColor=#000000;align=center;strokeColor=#FFFFFF;" vertex="1" parent="1">
          <mxGeometry x="640" y="550" width="95" height="30" as="geometry" />
        </mxCell>
        <mxCell id="59Pe3iavh_he9ooAjT1P-34" value="LIS系统" style="rounded=1;whiteSpace=wrap;html=1;shadow=0;strokeWidth=2;fillColor=none;fontSize=12;fontColor=#000000;align=center;strokeColor=#FFFFFF;" vertex="1" parent="1">
          <mxGeometry x="745" y="550" width="95" height="30" as="geometry" />
        </mxCell>
        <mxCell id="59Pe3iavh_he9ooAjT1P-35" value="PACS系统" style="rounded=1;whiteSpace=wrap;html=1;shadow=0;strokeWidth=2;fillColor=none;fontSize=12;fontColor=#000000;align=center;strokeColor=#FFFFFF;" vertex="1" parent="1">
          <mxGeometry x="640" y="600" width="95" height="30" as="geometry" />
        </mxCell>
        <mxCell id="59Pe3iavh_he9ooAjT1P-36" value="电子健康卡主索引" style="rounded=1;whiteSpace=wrap;html=1;shadow=0;strokeWidth=2;fillColor=none;fontSize=12;fontColor=#000000;align=center;strokeColor=#FFFFFF;" vertex="1" parent="1">
          <mxGeometry x="560" y="170" width="70" height="80" as="geometry" />
        </mxCell>
        <mxCell id="59Pe3iavh_he9ooAjT1P-37" value="" style="endArrow=classic;startArrow=classic;html=1;fontSize=12;exitX=0.5;exitY=0;exitDx=0;exitDy=0;" edge="1" parent="1">
          <mxGeometry width="50" height="50" relative="1" as="geometry">
            <mxPoint x="745" y="500" as="sourcePoint" />
            <mxPoint x="745" y="440" as="targetPoint" />
          </mxGeometry>
        </mxCell>
        <mxCell id="59Pe3iavh_he9ooAjT1P-38" value="公共卫生系统" style="rounded=1;whiteSpace=wrap;html=1;shadow=0;strokeWidth=2;fillColor=none;fontSize=12;fontColor=#000000;align=center;strokeColor=#FFFFFF;" vertex="1" parent="1">
          <mxGeometry x="745" y="600" width="95" height="30" as="geometry" />
        </mxCell>
        <mxCell id="59Pe3iavh_he9ooAjT1P-39" value="电子病历" style="rounded=1;whiteSpace=wrap;html=1;shadow=0;strokeWidth=2;fillColor=none;fontSize=12;fontColor=#000000;align=center;strokeColor=#FFFFFF;" vertex="1" parent="1">
          <mxGeometry x="220" y="650" width="95" height="30" as="geometry" />
        </mxCell>
        <mxCell id="59Pe3iavh_he9ooAjT1P-40" value="RIS系统" style="rounded=1;whiteSpace=wrap;html=1;shadow=0;strokeWidth=2;fillColor=none;fontSize=12;fontColor=#000000;align=center;strokeColor=#FFFFFF;" vertex="1" parent="1">
          <mxGeometry x="325" y="600" width="95" height="30" as="geometry" />
        </mxCell>
        <mxCell id="59Pe3iavh_he9ooAjT1P-41" value="其他" style="rounded=1;whiteSpace=wrap;html=1;shadow=0;strokeWidth=2;fillColor=none;fontSize=12;fontColor=#000000;align=center;strokeColor=#FFFFFF;" vertex="1" parent="1">
          <mxGeometry x="325" y="650" width="95" height="30" as="geometry" />
        </mxCell>
        <mxCell id="59Pe3iavh_he9ooAjT1P-42" value="其他" style="rounded=1;whiteSpace=wrap;html=1;shadow=0;strokeWidth=2;fillColor=none;fontSize=12;fontColor=#000000;align=center;strokeColor=#FFFFFF;" vertex="1" parent="1">
          <mxGeometry x="745" y="650" width="95" height="30" as="geometry" />
        </mxCell>
        <mxCell id="59Pe3iavh_he9ooAjT1P-43" value="家庭医生签约" style="rounded=1;whiteSpace=wrap;html=1;shadow=0;strokeWidth=2;fillColor=none;fontSize=12;fontColor=#000000;align=center;strokeColor=#FFFFFF;" vertex="1" parent="1">
          <mxGeometry x="640" y="650" width="95" height="30" as="geometry" />
        </mxCell>
      </root>
    </mxGraphModel>
  </diagram>
</mxfile>
